<svg xmlns="http://www.w3.org/2000/svg" width="600" height="303.463" viewBox="0 0 600 303.463"><path d="M520.905 66.389c-8.95-.458-18.226 2.776-25.119 8.982-6.957 6.108-11.497 15.189-12.15 24.792l9.799.261c-.229-7.088 2.417-14.34 7.447-19.794 5.03-5.455 12.314-8.95 20.023-9.342 7.708-.424 15.678 2.254 21.72 7.578 6.044 5.292 10.029 13.098 10.65 21.428.195-8.33-3.006-16.888-8.95-23.192-5.88-6.336-14.438-10.321-23.42-10.713zm-3.267-16.528c-13.294-.457-26.882 4.54-36.844 13.817-10.06 9.178-16.364 22.603-16.985 36.517l9.799.196c-.229-11.432 4.213-22.995 12.314-31.455 8.068-8.557 19.663-13.783 31.716-14.175 12.053-.458 24.335 4.017 33.415 12.412 9.146 8.329 14.895 20.447 15.515 33.12.229-12.673-4.769-25.51-13.784-34.884-8.95-9.407-21.852-15.189-35.146-15.548zm-6.532-18.03c-18.03-.458-36.29 6.467-49.584 19.108-13.392 12.543-21.656 30.638-22.243 49.29l9.799.13c-.23-16.136 6.14-32.37 17.605-44.194 11.367-11.857 27.634-19.075 44.423-19.435 16.756-.457 33.741 5.945 46.153 17.704 12.478 11.66 20.186 28.45 20.774 45.86.229-17.41-6.696-34.918-19.075-47.591-12.25-12.772-29.822-20.513-47.852-20.872zm-5.586-14.176c-21.656-.49-43.508 8.002-59.317 23.322-15.874 15.188-25.445 37.007-25.771 59.317h9.799c-.457-19.762 7.218-39.654 21.198-54.091 13.85-14.535 33.677-23.29 54.091-23.649 20.382-.49 40.96 7.48 55.822 21.918 14.993 14.273 24.04 34.786 24.367 55.822.49-21.036-7.741-42.234-22.603-57.586-14.764-15.417-35.93-24.726-57.586-25.053zm-3.332-12.739c25.02-.49 50.139 9.375 68.3 27.078 18.259 17.54 29.168 42.626 29.495 68.3.49-25.641-9.636-51.445-27.764-70.031C554.221 11.547 528.483.343 502.19.017c-26.262-.49-52.72 9.897-71.762 28.515-9.538 9.244-17.247 20.414-22.538 32.696-5.324 12.249-8.166 25.64-8.395 39.066h9.8c-.49-24.367 9.113-48.865 26.326-66.569 17.116-17.834 41.548-28.482 66.568-28.809z" fill="#7e8188"/><path d="M157.538 115.541a18.854 18.854 0 0 0-4.887-5.292c-1.973-1.451-4.46-2.601-7.461-3.45-3.002-.847-6.43-1.27-10.289-1.27h-27.075v89.278h9.775v-39.684h17.235c4.073 0 7.674-.493 10.805-1.478 3.13-.986 5.648-2.265 7.557-3.84 1.906-1.573 3.472-3.502 4.694-5.784 1.221-2.282 2.057-4.582 2.508-6.9.45-2.317.675-4.842.675-7.574 0-2.662-.268-5.143-.804-7.443s-1.446-4.488-2.733-6.563zm-9.776 28.713c-2.357 3.096-6.28 4.627-11.768 4.592l-18.393-.053v-36.935h18.393c5.145 0 8.982 1.436 11.512 4.305 2.53 2.872 3.794 7.384 3.794 13.54 0 6.607-1.18 11.457-3.538 14.55zm54.6 27.313l5.531 23.24h9.903l-21.864-89.277h-12.734l-21.866 89.277h9.839l5.66-23.24h25.531zM189.5 113.726l11.641 52.601H177.99l11.51-52.601zm67.656 82.482c18.392 0 27.588-7.782 27.588-23.345V105.53h-9.71v69.15c0 5.083-1.373 8.888-4.116 11.413-2.743 2.525-7.332 3.786-13.762 3.786-6.817 0-11.662-1.253-14.534-3.76-2.873-2.508-4.308-6.321-4.308-11.44v-69.15h-9.775v67.334c0 2.664.256 5.094.772 7.289.513 2.198 1.435 4.306 2.764 6.33 1.328 2.022 3.055 3.734 5.177 5.136 2.122 1.4 4.866 2.515 8.232 3.346 3.366.829 7.256 1.244 11.672 1.244zm86.561-7.73h-30.933V105.53h-9.775v89.277h40.708v-6.328zM132.917 209.65c-4.156 0-7.815.468-10.973 1.4-3.16.935-5.757 2.205-7.792 3.814-2.037 1.608-3.7 3.589-4.994 5.94a25.455 25.455 0 0 0-2.703 7.417c-.51 2.595-.764 5.482-.764 8.664v37.402c0 3.183.244 6.062.732 8.638a26.184 26.184 0 0 0 2.607 7.418c1.25 2.37 2.884 4.357 4.898 5.966 2.015 1.608 4.622 2.889 7.825 3.84 3.2.95 6.923 1.425 11.164 1.425 3.944 0 7.421-.475 10.432-1.426s5.47-2.231 7.38-3.839c1.909-1.609 3.467-3.596 4.676-5.966a26.754 26.754 0 0 0 2.512-7.444c.466-2.595.7-5.464.7-8.612v-4.357h-9.225v6.12c0 2.872-.264 5.414-.794 7.628-.53 2.213-1.411 4.218-2.64 6.017-1.23 1.798-2.937 3.172-5.12 4.125-2.186.95-4.825 1.425-7.92 1.425-3.436 0-6.34-.475-8.715-1.425-2.377-.953-4.19-2.335-5.44-4.152a17.486 17.486 0 0 1-2.64-5.965c-.509-2.16-.762-4.711-.762-7.652v-40.93c0-2.316.146-4.383.444-6.2a19.422 19.422 0 0 1 1.622-5.211c.785-1.66 1.823-3.044 3.117-4.152 1.293-1.105 2.98-1.98 5.057-2.619 2.078-.64 4.517-.96 7.316-.96 3.096 0 5.735.475 7.92 1.427 2.184.951 3.89 2.318 5.122 4.098 1.228 1.781 2.108 3.778 2.64 5.992.529 2.214.793 4.756.793 7.625v5.396h9.225v-3.632c0-18.156-8.567-27.235-25.7-27.235zm90.522 11.128c-1.358-2.335-3.075-4.306-5.152-5.914-2.08-1.609-4.73-2.879-7.952-3.813-3.223-.933-6.914-1.4-11.069-1.4-4.157 0-7.846.467-11.068 1.4-3.223.934-5.876 2.204-7.952 3.813-2.078 1.608-3.796 3.58-5.153 5.914a25.538 25.538 0 0 0-2.895 7.443c-.573 2.629-.858 5.517-.858 8.664v37.402c0 18.191 9.308 27.287 27.926 27.287s27.927-9.096 27.927-27.287v-37.402c0-3.147-.287-6.035-.86-8.664a25.537 25.537 0 0 0-2.894-7.443zm-5.916 55.273c0 12.797-6.086 19.194-18.257 19.194-12.172 0-18.256-6.397-18.256-19.194v-40.93c0-12.76 6.084-19.142 18.256-19.142 12.171 0 18.257 6.381 18.257 19.142v40.93zm68.32 5.552l-34.669-70.707h-7.443v89.278h8.333V230.97l34.734 69.203h7.252v-89.278h-8.206v70.707zm73.125-7.107c-.36-.968-1.028-2.102-2.003-3.399-.976-1.297-1.729-2.3-2.258-3.008-.531-.71-1.507-1.756-2.927-3.139a161.87 161.87 0 0 0-2.927-2.802 440.365 440.365 0 0 0-3.34-2.982 715.501 715.501 0 0 1-3.18-2.828l-16.094-14.265c-2.885-2.56-5.1-4.98-6.647-7.263-1.549-2.282-2.322-4.6-2.322-6.95 0-3.91 1.43-6.867 4.293-8.871 2.863-2.007 6.712-3.01 11.546-3.01 4.963 0 8.98 1.42 12.055 4.254 3.074 2.837 5.036 6.484 5.884 10.945l.128.728 8.142-2.075-.19-.831c-1.444-6.294-4.348-11.093-8.716-14.396-4.369-3.301-10.136-4.954-17.303-4.954-7.378 0-13.421 1.747-18.13 5.24-4.706 3.493-7.06 8.162-7.06 14.006 0 3.078.995 6.018 2.989 8.82 1.993 2.8 4.856 5.809 8.588 9.025l17.112 14.681c4.834 4.15 8.493 7.817 10.973 10.999 2.481 3.182 3.722 6.483 3.722 9.907 0 4.117-1.359 7.299-4.072 9.546-2.714 2.249-6.551 3.371-11.513 3.371-3.097 0-5.865-.518-8.302-1.556-2.44-1.037-4.4-2.464-5.885-4.28a23.221 23.221 0 0 1-3.53-5.888c-.87-2.108-1.475-4.41-1.813-6.9l-8.524 2.025c.593 3.146 1.58 6.068 2.958 8.767a27.885 27.885 0 0 0 5.343 7.261c2.183 2.146 4.868 3.831 8.048 5.06 3.18 1.226 6.72 1.84 10.624 1.84 7.633 0 13.856-1.729 18.67-5.187 4.813-3.457 7.22-8.37 7.22-14.733 0-1.244-.17-2.507-.51-3.787a36.92 36.92 0 0 0-1.049-3.371zm54.866-63.6h-52.481v6.329h21.31v82.949h9.669v-82.95h21.502v-6.328zm21.567 0l-21.63 89.278h9.735l5.598-23.241h25.254l5.47 23.24h9.796l-21.627-89.277h-12.596zm-5.152 60.798l11.384-52.602 11.516 52.602h-22.9zm93.764 9.909l-34.67-70.707h-7.442v89.278h8.332V230.97l34.734 69.203h7.25v-89.278h-8.204v70.707zm74.172-3.736a37.434 37.434 0 0 0-1.05-3.371c-.36-.968-1.03-2.102-2.002-3.399-.976-1.297-1.73-2.3-2.259-3.008-.532-.71-1.505-1.756-2.928-3.139a157.65 157.65 0 0 0-2.925-2.802c-.53-.483-1.643-1.478-3.34-2.982a827.447 827.447 0 0 1-3.18-2.828l-16.096-14.265c-2.883-2.56-5.097-4.98-6.647-7.263-1.547-2.282-2.322-4.6-2.322-6.95 0-3.91 1.432-6.867 4.296-8.871 2.862-2.007 6.712-3.01 11.544-3.01 4.964 0 8.98 1.42 12.055 4.254 3.074 2.837 5.036 6.484 5.885 10.945l.127.728 8.144-2.075-.192-.831c-1.441-6.294-4.347-11.093-8.714-14.396-4.37-3.301-10.137-4.954-17.305-4.954-7.378 0-13.422 1.747-18.127 5.24-4.709 3.493-7.063 8.162-7.063 14.006 0 3.078.996 6.018 2.99 8.82 1.993 2.8 4.854 5.809 8.586 9.025l17.113 14.681c4.836 4.15 8.492 7.817 10.973 10.999 2.482 3.182 3.723 6.483 3.723 9.907 0 4.117-1.359 7.299-4.07 9.546-2.715 2.249-6.555 3.371-11.516 3.371-3.097 0-5.862-.518-8.303-1.556-2.437-1.037-4.398-2.464-5.881-4.28a23.18 23.18 0 0 1-3.532-5.888c-.87-2.108-1.473-4.41-1.815-6.9l-8.523 2.025c.594 3.146 1.58 6.068 2.957 8.767a27.897 27.897 0 0 0 5.346 7.261c2.182 2.146 4.865 3.831 8.045 5.06 3.183 1.226 6.72 1.84 10.625 1.84 7.633 0 13.857-1.729 18.67-5.187 4.813-3.457 7.222-8.37 7.222-14.733 0-1.244-.173-2.507-.51-3.787z"/><path d="M517.638 103.135c-6.075 22.08-18.39 40.928-34.982 53.928a93.378 93.378 0 0 1-25.445 14.339c8.623-3.789 16.56-9.048 23.158-15.58 14.405-13.98 22.734-33.71 22.015-52.687-5.454 18.096-15.841 33.448-29.658 43.998a77.95 77.95 0 0 1-21.884 11.89c7.349-3.07 14.11-7.448 19.76-12.935 12.021-11.302 19.142-27.34 18.913-42.953-4.9 14.732-13.719 27.078-25.15 35.636a68.016 68.016 0 0 1-13.23 7.676 50.094 50.094 0 0 0 10.845-8.133c9.636-9.31 15.156-22.505 14.633-35.179-3.07 10.322-8.558 19.304-15.81 26.098a38.572 38.572 0 0 1-3.755 3.234l-.098.098a47.697 47.697 0 0 1-4.28 2.972c0 .033-.032.033-.065.033a49.908 49.908 0 0 1-8.002 4.083c3.887-1.992 7.414-4.606 10.387-7.741 7.643-7.741 11.726-18.651 10.713-28.777-4.736 9.44-10.844 16.234-17.9 20.774-7.022 4.573-14.73 6.762-22.57 6.794-7.806-.032-15.548-2.188-22.57-6.761-7.056-4.54-13.164-11.367-17.867-20.807-1.013 10.126 3.07 21.036 10.714 28.744 3.102 3.266 6.826 5.978 10.91 8.035a51.907 51.907 0 0 1-8.395-4.246 51.657 51.657 0 0 1-4.475-3.07 50.76 50.76 0 0 1-3.79-3.234c-7.316-6.86-12.836-15.874-15.874-26.229-.522 12.674 4.998 25.87 14.634 35.179 3.299 3.299 7.087 6.075 11.203 8.33-4.769-2.059-9.374-4.672-13.62-7.84-11.433-8.558-20.22-20.937-25.119-35.669-.228 15.613 6.925 31.651 18.912 42.92 5.651 5.488 12.412 9.897 19.762 12.967a77.952 77.952 0 0 1-21.885-11.89c-13.85-10.517-24.203-25.901-29.658-43.997-.719 18.978 7.643 38.674 22.048 52.654 6.598 6.533 14.502 11.824 23.125 15.613a92.603 92.603 0 0 1-25.477-14.307c-16.56-13-28.875-31.88-34.95-53.96-1.307 22.995 8.427 47.101 25.739 64.217 8.623 8.59 19.043 15.547 30.475 20.251 11.4 4.704 23.811 7.12 36.158 7.153 12.38-.032 24.792-2.417 36.224-7.153 11.4-4.704 21.852-11.628 30.442-20.251 17.312-17.116 27.046-41.222 25.74-64.217zM86.81 296.055H23.254v7.408H91.66V272.61h-4.85v23.445zm-63.556-62.109v7.263c5.512 1.885 12.036 4.192 19.575 6.922 7.54 2.729 14.423 5.134 20.65 7.214l-3.14 1.169c-2.12.78-4.83 1.78-8.128 2.998a1959.143 1959.143 0 0 1-20.889 7.58 683.004 683.004 0 0 1-8.068 2.827v7.506l47.18-18.327H91.66v-7.409H70.434l-47.18-17.743zm65.445-38.271c-1.232-1.46-2.756-2.656-4.571-3.582-1.815-.925-3.716-1.568-5.704-1.925s-4.186-.536-6.598-.536h-3.34v7.067h4.691c2.2 0 4.148.204 5.844.61 1.695.406 3.233 1.08 4.61 2.023s2.431 2.25 3.16 3.924c.729 1.673 1.093 3.697 1.093 6.068 0 2.632-.364 4.858-1.093 6.678-.729 1.82-1.79 3.209-3.18 4.167a13.4 13.4 0 0 1-4.571 2.023c-1.656.389-3.61.585-5.863.585H41.815c-1.775 0-3.359-.113-4.75-.341a14.927 14.927 0 0 1-3.995-1.244c-1.27-.6-2.33-1.396-3.178-2.388-.849-.99-1.517-2.282-2.008-3.875-.49-1.592-.736-3.461-.736-5.605 0-2.371.366-4.395 1.093-6.068.729-1.674 1.777-2.981 3.14-3.924 1.365-.942 2.897-1.617 4.592-2.024 1.695-.405 3.643-.61 5.842-.61h4.134v-7.066h-2.782c-13.912 0-20.869 6.565-20.869 19.692 0 3.185.36 5.987 1.074 8.408.716 2.421 1.69 4.41 2.921 5.97a14.841 14.841 0 0 0 4.552 3.826 19.491 19.491 0 0 0 5.685 2.072c1.987.39 4.199.585 6.637.585h28.66c2.438 0 4.644-.186 6.616-.56 1.975-.373 3.87-1.04 5.685-1.998s3.34-2.21 4.57-3.754c1.233-1.542 2.214-3.54 2.943-5.995.727-2.453 1.093-5.305 1.093-8.554 0-3.022-.366-5.686-1.093-7.993-.729-2.308-1.71-4.193-2.942-5.656zM0 160.767l15.82 5.996v-2.73L0 152.872v7.896zm91.66-9.992h-4.85v21.838H58.59v-15.598h-4.572v15.598H28.102v-21.838h-4.848v29.246H91.66v-29.246zm0-37.054h-4.85v21.838H58.59V119.96h-4.572v15.599H28.102V113.72h-4.848v29.246H91.66V113.72z" fill="#ac2a8d"/></svg>